<mxfile host="Electron" modified="2025-10-06T20:49:29.655Z" agent="Mozilla/5.0 (Windows NT 10.0; Win64; x64) AppleWebKit/537.36 (KHTML, like Gecko) draw.io/21.6.5 Chrome/114.0.5735.243 Electron/25.3.1 Safari/537.36" etag="d8llVdkl_oh5yaT1XP7C" version="21.6.5" type="device">
  <diagram name="PÃ¡gina-1" id="lAUPF_eYJD9s_3QSneo4">
    <mxGraphModel dx="1529" dy="781" grid="1" gridSize="10" guides="1" tooltips="1" connect="1" arrows="1" fold="1" page="1" pageScale="1" pageWidth="827" pageHeight="1169" math="0" shadow="0">
      <root>
        <mxCell id="0" />
        <mxCell id="1" parent="0" />
        <mxCell id="80N_cRb_uYNAviKP2pO8-1" value="AWS Cloud" style="points=[[0,0],[0.25,0],[0.5,0],[0.75,0],[1,0],[1,0.25],[1,0.5],[1,0.75],[1,1],[0.75,1],[0.5,1],[0.25,1],[0,1],[0,0.75],[0,0.5],[0,0.25]];outlineConnect=0;gradientColor=none;html=1;whiteSpace=wrap;fontSize=12;fontStyle=0;container=1;pointerEvents=0;collapsible=0;recursiveResize=0;shape=mxgraph.aws4.group;grIcon=mxgraph.aws4.group_aws_cloud_alt;strokeColor=#232F3E;fillColor=none;verticalAlign=top;align=left;spacingLeft=30;fontColor=#232F3E;dashed=0;" parent="1" vertex="1">
          <mxGeometry x="40" y="40" width="1360" height="1080" as="geometry" />
        </mxCell>
        <mxCell id="80N_cRb_uYNAviKP2pO8-4" value="Region" style="points=[[0,0],[0.25,0],[0.5,0],[0.75,0],[1,0],[1,0.25],[1,0.5],[1,0.75],[1,1],[0.75,1],[0.5,1],[0.25,1],[0,1],[0,0.75],[0,0.5],[0,0.25]];outlineConnect=0;gradientColor=none;html=1;whiteSpace=wrap;fontSize=12;fontStyle=0;container=1;pointerEvents=0;collapsible=0;recursiveResize=0;shape=mxgraph.aws4.group;grIcon=mxgraph.aws4.group_region;strokeColor=#147EBA;fillColor=none;verticalAlign=top;align=left;spacingLeft=30;fontColor=#147EBA;dashed=1;" parent="80N_cRb_uYNAviKP2pO8-1" vertex="1">
          <mxGeometry x="40" y="120" width="1280" height="920" as="geometry" />
        </mxCell>
        <mxCell id="80N_cRb_uYNAviKP2pO8-5" value="us-east-1a&lt;span style=&quot;white-space: pre;&quot;&gt;&#x9;&lt;/span&gt;" style="fillColor=none;strokeColor=#147EBA;dashed=1;verticalAlign=top;fontStyle=0;fontColor=#147EBA;whiteSpace=wrap;html=1;" parent="80N_cRb_uYNAviKP2pO8-4" vertex="1">
          <mxGeometry x="120" y="40" width="360" height="720" as="geometry" />
        </mxCell>
        <mxCell id="80N_cRb_uYNAviKP2pO8-2" value="VPC" style="points=[[0,0],[0.25,0],[0.5,0],[0.75,0],[1,0],[1,0.25],[1,0.5],[1,0.75],[1,1],[0.75,1],[0.5,1],[0.25,1],[0,1],[0,0.75],[0,0.5],[0,0.25]];outlineConnect=0;gradientColor=none;html=1;whiteSpace=wrap;fontSize=12;fontStyle=0;container=1;pointerEvents=0;collapsible=0;recursiveResize=0;shape=mxgraph.aws4.group;grIcon=mxgraph.aws4.group_vpc;strokeColor=#248814;fillColor=none;verticalAlign=top;align=left;spacingLeft=30;fontColor=#AAB7B8;dashed=0;" parent="80N_cRb_uYNAviKP2pO8-4" vertex="1">
          <mxGeometry x="40" y="80" width="1150" height="740" as="geometry" />
        </mxCell>
        <mxCell id="4S3UJQU2cWQskrLxN0cE-4" value="Private-1- subnet" style="points=[[0,0],[0.25,0],[0.5,0],[0.75,0],[1,0],[1,0.25],[1,0.5],[1,0.75],[1,1],[0.75,1],[0.5,1],[0.25,1],[0,1],[0,0.75],[0,0.5],[0,0.25]];outlineConnect=0;gradientColor=none;html=1;whiteSpace=wrap;fontSize=12;fontStyle=0;container=1;pointerEvents=0;collapsible=0;recursiveResize=0;shape=mxgraph.aws4.group;grIcon=mxgraph.aws4.group_security_group;grStroke=0;strokeColor=#147EBA;fillColor=#E6F2F8;verticalAlign=top;align=left;spacingLeft=30;fontColor=#147EBA;dashed=0;" vertex="1" parent="80N_cRb_uYNAviKP2pO8-2">
          <mxGeometry x="120" y="200" width="280" height="280" as="geometry" />
        </mxCell>
        <mxCell id="4S3UJQU2cWQskrLxN0cE-6" value="node worker 1" style="points=[[0,0],[0.25,0],[0.5,0],[0.75,0],[1,0],[1,0.25],[1,0.5],[1,0.75],[1,1],[0.75,1],[0.5,1],[0.25,1],[0,1],[0,0.75],[0,0.5],[0,0.25]];outlineConnect=0;gradientColor=none;html=1;whiteSpace=wrap;fontSize=12;fontStyle=0;container=1;pointerEvents=0;collapsible=0;recursiveResize=0;shape=mxgraph.aws4.group;grIcon=mxgraph.aws4.group_ec2_instance_contents;strokeColor=#D86613;fillColor=none;verticalAlign=top;align=left;spacingLeft=30;fontColor=#D86613;dashed=0;" vertex="1" parent="4S3UJQU2cWQskrLxN0cE-4">
          <mxGeometry x="20" y="40" width="130" height="220" as="geometry" />
        </mxCell>
        <mxCell id="4S3UJQU2cWQskrLxN0cE-9" value="pod" style="sketch=0;html=1;dashed=0;whitespace=wrap;fillColor=#2875E2;strokeColor=#ffffff;points=[[0.005,0.63,0],[0.1,0.2,0],[0.9,0.2,0],[0.5,0,0],[0.995,0.63,0],[0.72,0.99,0],[0.5,1,0],[0.28,0.99,0]];verticalLabelPosition=bottom;align=center;verticalAlign=top;shape=mxgraph.kubernetes.icon;prIcon=pod" vertex="1" parent="4S3UJQU2cWQskrLxN0cE-6">
          <mxGeometry x="70" y="38" width="40" height="44" as="geometry" />
        </mxCell>
        <mxCell id="4S3UJQU2cWQskrLxN0cE-17" value="nginx" style="outlineConnect=0;dashed=0;verticalLabelPosition=bottom;verticalAlign=top;align=center;html=1;shape=mxgraph.aws3.ec2_compute_container;fillColor=#F58534;gradientColor=none;" vertex="1" parent="4S3UJQU2cWQskrLxN0cE-6">
          <mxGeometry x="70" y="120" width="30" height="24.5" as="geometry" />
        </mxCell>
        <mxCell id="4S3UJQU2cWQskrLxN0cE-26" style="edgeStyle=orthogonalEdgeStyle;rounded=0;orthogonalLoop=1;jettySize=auto;html=1;entryX=1.021;entryY=0.271;entryDx=0;entryDy=0;entryPerimeter=0;" edge="1" parent="80N_cRb_uYNAviKP2pO8-2" source="4S3UJQU2cWQskrLxN0cE-13" target="4S3UJQU2cWQskrLxN0cE-6">
          <mxGeometry relative="1" as="geometry" />
        </mxCell>
        <mxCell id="4S3UJQU2cWQskrLxN0cE-13" value="" style="sketch=0;html=1;dashed=0;whitespace=wrap;fillColor=#2875E2;strokeColor=#ffffff;points=[[0.005,0.63,0],[0.1,0.2,0],[0.9,0.2,0],[0.5,0,0],[0.995,0.63,0],[0.72,0.99,0],[0.5,1,0],[0.28,0.99,0]];verticalLabelPosition=bottom;align=center;verticalAlign=top;shape=mxgraph.kubernetes.icon;prIcon=svc" vertex="1" parent="80N_cRb_uYNAviKP2pO8-2">
          <mxGeometry x="490" y="276" width="60" height="48" as="geometry" />
        </mxCell>
        <mxCell id="4S3UJQU2cWQskrLxN0cE-28" style="edgeStyle=orthogonalEdgeStyle;rounded=0;orthogonalLoop=1;jettySize=auto;html=1;entryX=0.5;entryY=0;entryDx=0;entryDy=0;" edge="1" parent="80N_cRb_uYNAviKP2pO8-2" source="4S3UJQU2cWQskrLxN0cE-1" target="4S3UJQU2cWQskrLxN0cE-6">
          <mxGeometry relative="1" as="geometry" />
        </mxCell>
        <mxCell id="4S3UJQU2cWQskrLxN0cE-1" value="" style="sketch=0;points=[[0,0,0],[0.25,0,0],[0.5,0,0],[0.75,0,0],[1,0,0],[0,1,0],[0.25,1,0],[0.5,1,0],[0.75,1,0],[1,1,0],[0,0.25,0],[0,0.5,0],[0,0.75,0],[1,0.25,0],[1,0.5,0],[1,0.75,0]];outlineConnect=0;fontColor=#232F3E;gradientColor=#945DF2;gradientDirection=north;fillColor=#5A30B5;strokeColor=#ffffff;dashed=0;verticalLabelPosition=bottom;verticalAlign=top;align=center;html=1;fontSize=12;fontStyle=0;aspect=fixed;shape=mxgraph.aws4.resourceIcon;resIcon=mxgraph.aws4.elastic_load_balancing;" vertex="1" parent="80N_cRb_uYNAviKP2pO8-2">
          <mxGeometry x="490" y="80" width="48" height="48" as="geometry" />
        </mxCell>
        <mxCell id="4S3UJQU2cWQskrLxN0cE-31" value="Public 1 - subnet" style="points=[[0,0],[0.25,0],[0.5,0],[0.75,0],[1,0],[1,0.25],[1,0.5],[1,0.75],[1,1],[0.75,1],[0.5,1],[0.25,1],[0,1],[0,0.75],[0,0.5],[0,0.25]];outlineConnect=0;gradientColor=none;html=1;whiteSpace=wrap;fontSize=12;fontStyle=0;container=1;pointerEvents=0;collapsible=0;recursiveResize=0;shape=mxgraph.aws4.group;grIcon=mxgraph.aws4.group_security_group;grStroke=0;strokeColor=#248814;fillColor=#E9F3E6;verticalAlign=top;align=left;spacingLeft=30;fontColor=#248814;dashed=0;" vertex="1" parent="80N_cRb_uYNAviKP2pO8-2">
          <mxGeometry x="120" y="520" width="280" height="120" as="geometry" />
        </mxCell>
        <mxCell id="4S3UJQU2cWQskrLxN0cE-38" value="EKS" style="points=[[0,0],[0.25,0],[0.5,0],[0.75,0],[1,0],[1,0.25],[1,0.5],[1,0.75],[1,1],[0.75,1],[0.5,1],[0.25,1],[0,1],[0,0.75],[0,0.5],[0,0.25]];outlineConnect=0;gradientColor=none;html=1;whiteSpace=wrap;fontSize=12;fontStyle=0;container=1;pointerEvents=0;collapsible=0;recursiveResize=0;shape=mxgraph.aws4.group;grIcon=mxgraph.aws4.group_ec2_instance_contents;strokeColor=#D86613;fillColor=none;verticalAlign=top;align=left;spacingLeft=30;fontColor=#D86613;dashed=0;" vertex="1" parent="80N_cRb_uYNAviKP2pO8-2">
          <mxGeometry x="10" y="180" width="970" height="336" as="geometry" />
        </mxCell>
        <mxCell id="4S3UJQU2cWQskrLxN0cE-52" value="" style="sketch=0;outlineConnect=0;fontColor=#232F3E;gradientColor=none;fillColor=#4D27AA;strokeColor=none;dashed=0;verticalLabelPosition=bottom;verticalAlign=top;align=center;html=1;fontSize=12;fontStyle=0;aspect=fixed;pointerEvents=1;shape=mxgraph.aws4.route_table;" vertex="1" parent="4S3UJQU2cWQskrLxN0cE-38">
          <mxGeometry x="245" y="260" width="78" height="76" as="geometry" />
        </mxCell>
        <mxCell id="4S3UJQU2cWQskrLxN0cE-49" style="edgeStyle=orthogonalEdgeStyle;rounded=0;orthogonalLoop=1;jettySize=auto;html=1;" edge="1" parent="80N_cRb_uYNAviKP2pO8-2" source="4S3UJQU2cWQskrLxN0cE-6" target="4S3UJQU2cWQskrLxN0cE-31">
          <mxGeometry relative="1" as="geometry" />
        </mxCell>
        <mxCell id="4S3UJQU2cWQskrLxN0cE-50" value="" style="sketch=0;outlineConnect=0;fontColor=#232F3E;gradientColor=none;fillColor=#4D27AA;strokeColor=none;dashed=0;verticalLabelPosition=bottom;verticalAlign=top;align=center;html=1;fontSize=12;fontStyle=0;aspect=fixed;pointerEvents=1;shape=mxgraph.aws4.route_table;" vertex="1" parent="80N_cRb_uYNAviKP2pO8-2">
          <mxGeometry x="150" y="694" width="78" height="76" as="geometry" />
        </mxCell>
        <mxCell id="4S3UJQU2cWQskrLxN0cE-51" value="" style="sketch=0;outlineConnect=0;fontColor=#232F3E;gradientColor=none;fillColor=#4D27AA;strokeColor=none;dashed=0;verticalLabelPosition=bottom;verticalAlign=top;align=center;html=1;fontSize=12;fontStyle=0;aspect=fixed;pointerEvents=1;shape=mxgraph.aws4.route_table;" vertex="1" parent="80N_cRb_uYNAviKP2pO8-2">
          <mxGeometry x="800" y="680" width="78" height="76" as="geometry" />
        </mxCell>
        <mxCell id="4S3UJQU2cWQskrLxN0cE-30" value="Internet&#xa;gateway" style="sketch=0;outlineConnect=0;fontColor=#232F3E;gradientColor=none;strokeColor=#232F3E;fillColor=#ffffff;dashed=0;verticalLabelPosition=bottom;verticalAlign=top;align=center;html=1;fontSize=12;fontStyle=0;aspect=fixed;shape=mxgraph.aws4.resourceIcon;resIcon=mxgraph.aws4.internet_gateway;" vertex="1" parent="80N_cRb_uYNAviKP2pO8-2">
          <mxGeometry x="510" y="710" width="60" height="60" as="geometry" />
        </mxCell>
        <mxCell id="kObWodUmzE2k-lREK8aw-1" value="us-east-1b" style="fillColor=none;strokeColor=#147EBA;dashed=1;verticalAlign=top;fontStyle=0;fontColor=#147EBA;whiteSpace=wrap;html=1;" parent="80N_cRb_uYNAviKP2pO8-4" vertex="1">
          <mxGeometry x="680" y="40" width="360" height="720" as="geometry" />
        </mxCell>
        <mxCell id="4S3UJQU2cWQskrLxN0cE-3" value="Private-2 - subnet" style="points=[[0,0],[0.25,0],[0.5,0],[0.75,0],[1,0],[1,0.25],[1,0.5],[1,0.75],[1,1],[0.75,1],[0.5,1],[0.25,1],[0,1],[0,0.75],[0,0.5],[0,0.25]];outlineConnect=0;gradientColor=none;html=1;whiteSpace=wrap;fontSize=12;fontStyle=0;container=1;pointerEvents=0;collapsible=0;recursiveResize=0;shape=mxgraph.aws4.group;grIcon=mxgraph.aws4.group_security_group;grStroke=0;strokeColor=#147EBA;fillColor=#E6F2F8;verticalAlign=top;align=left;spacingLeft=30;fontColor=#147EBA;dashed=0;" vertex="1" parent="80N_cRb_uYNAviKP2pO8-4">
          <mxGeometry x="720" y="282" width="280" height="278" as="geometry" />
        </mxCell>
        <mxCell id="4S3UJQU2cWQskrLxN0cE-7" value="node worker 2" style="points=[[0,0],[0.25,0],[0.5,0],[0.75,0],[1,0],[1,0.25],[1,0.5],[1,0.75],[1,1],[0.75,1],[0.5,1],[0.25,1],[0,1],[0,0.75],[0,0.5],[0,0.25]];outlineConnect=0;gradientColor=none;html=1;whiteSpace=wrap;fontSize=12;fontStyle=0;container=1;pointerEvents=0;collapsible=0;recursiveResize=0;shape=mxgraph.aws4.group;grIcon=mxgraph.aws4.group_ec2_instance_contents;strokeColor=#D86613;fillColor=none;verticalAlign=top;align=left;spacingLeft=30;fontColor=#D86613;dashed=0;" vertex="1" parent="4S3UJQU2cWQskrLxN0cE-3">
          <mxGeometry x="40" y="38" width="130" height="222" as="geometry" />
        </mxCell>
        <mxCell id="4S3UJQU2cWQskrLxN0cE-11" value="pod&lt;br&gt;" style="sketch=0;html=1;dashed=0;whitespace=wrap;fillColor=#2875E2;strokeColor=#ffffff;points=[[0.005,0.63,0],[0.1,0.2,0],[0.9,0.2,0],[0.5,0,0],[0.995,0.63,0],[0.72,0.99,0],[0.5,1,0],[0.28,0.99,0]];verticalLabelPosition=bottom;align=center;verticalAlign=top;shape=mxgraph.kubernetes.icon;prIcon=pod" vertex="1" parent="4S3UJQU2cWQskrLxN0cE-7">
          <mxGeometry x="7" y="43" width="40" height="44" as="geometry" />
        </mxCell>
        <mxCell id="4S3UJQU2cWQskrLxN0cE-18" value="nginx" style="outlineConnect=0;dashed=0;verticalLabelPosition=bottom;verticalAlign=top;align=center;html=1;shape=mxgraph.aws3.ec2_compute_container;fillColor=#F58534;gradientColor=none;" vertex="1" parent="4S3UJQU2cWQskrLxN0cE-7">
          <mxGeometry x="17" y="130" width="30" height="24.5" as="geometry" />
        </mxCell>
        <mxCell id="4S3UJQU2cWQskrLxN0cE-10" value="pod" style="sketch=0;html=1;dashed=0;whitespace=wrap;fillColor=#2875E2;strokeColor=#ffffff;points=[[0.005,0.63,0],[0.1,0.2,0],[0.9,0.2,0],[0.5,0,0],[0.995,0.63,0],[0.72,0.99,0],[0.5,1,0],[0.28,0.99,0]];verticalLabelPosition=bottom;align=center;verticalAlign=top;shape=mxgraph.kubernetes.icon;prIcon=pod" vertex="1" parent="80N_cRb_uYNAviKP2pO8-4">
          <mxGeometry x="200" y="360" width="40" height="44" as="geometry" />
        </mxCell>
        <mxCell id="4S3UJQU2cWQskrLxN0cE-12" value="pod&lt;br&gt;" style="sketch=0;html=1;dashed=0;whitespace=wrap;fillColor=#2875E2;strokeColor=#ffffff;points=[[0.005,0.63,0],[0.1,0.2,0],[0.9,0.2,0],[0.5,0,0],[0.995,0.63,0],[0.72,0.99,0],[0.5,1,0],[0.28,0.99,0]];verticalLabelPosition=bottom;align=center;verticalAlign=top;shape=mxgraph.kubernetes.icon;prIcon=pod" vertex="1" parent="80N_cRb_uYNAviKP2pO8-4">
          <mxGeometry x="830" y="360" width="40" height="44" as="geometry" />
        </mxCell>
        <mxCell id="4S3UJQU2cWQskrLxN0cE-14" value="nginx" style="outlineConnect=0;dashed=0;verticalLabelPosition=bottom;verticalAlign=top;align=center;html=1;shape=mxgraph.aws3.ec2_compute_container;fillColor=#F58534;gradientColor=none;" vertex="1" parent="80N_cRb_uYNAviKP2pO8-4">
          <mxGeometry x="205" y="440" width="30" height="24.5" as="geometry" />
        </mxCell>
        <mxCell id="4S3UJQU2cWQskrLxN0cE-19" value="nginx" style="outlineConnect=0;dashed=0;verticalLabelPosition=bottom;verticalAlign=top;align=center;html=1;shape=mxgraph.aws3.ec2_compute_container;fillColor=#F58534;gradientColor=none;" vertex="1" parent="80N_cRb_uYNAviKP2pO8-4">
          <mxGeometry x="840" y="450" width="30" height="24.5" as="geometry" />
        </mxCell>
        <mxCell id="4S3UJQU2cWQskrLxN0cE-27" style="edgeStyle=orthogonalEdgeStyle;rounded=0;orthogonalLoop=1;jettySize=auto;html=1;entryX=0.01;entryY=0.272;entryDx=0;entryDy=0;entryPerimeter=0;" edge="1" parent="80N_cRb_uYNAviKP2pO8-4" source="4S3UJQU2cWQskrLxN0cE-13" target="4S3UJQU2cWQskrLxN0cE-7">
          <mxGeometry relative="1" as="geometry" />
        </mxCell>
        <mxCell id="4S3UJQU2cWQskrLxN0cE-29" style="edgeStyle=orthogonalEdgeStyle;rounded=0;orthogonalLoop=1;jettySize=auto;html=1;entryX=0.5;entryY=0;entryDx=0;entryDy=0;" edge="1" parent="80N_cRb_uYNAviKP2pO8-4" source="4S3UJQU2cWQskrLxN0cE-1" target="4S3UJQU2cWQskrLxN0cE-7">
          <mxGeometry relative="1" as="geometry" />
        </mxCell>
        <mxCell id="4S3UJQU2cWQskrLxN0cE-36" style="edgeStyle=orthogonalEdgeStyle;rounded=0;orthogonalLoop=1;jettySize=auto;html=1;" edge="1" parent="80N_cRb_uYNAviKP2pO8-4">
          <mxGeometry relative="1" as="geometry">
            <mxPoint x="555" y="820.0026315789476" as="sourcePoint" />
            <mxPoint x="260" y="719.95" as="targetPoint" />
          </mxGeometry>
        </mxCell>
        <mxCell id="4S3UJQU2cWQskrLxN0cE-42" style="edgeStyle=orthogonalEdgeStyle;rounded=0;orthogonalLoop=1;jettySize=auto;html=1;entryX=0.528;entryY=0.944;entryDx=0;entryDy=0;entryPerimeter=0;" edge="1" parent="80N_cRb_uYNAviKP2pO8-4" source="4S3UJQU2cWQskrLxN0cE-30" target="kObWodUmzE2k-lREK8aw-1">
          <mxGeometry relative="1" as="geometry" />
        </mxCell>
        <mxCell id="4S3UJQU2cWQskrLxN0cE-32" value="Public 2 - subnet" style="points=[[0,0],[0.25,0],[0.5,0],[0.75,0],[1,0],[1,0.25],[1,0.5],[1,0.75],[1,1],[0.75,1],[0.5,1],[0.25,1],[0,1],[0,0.75],[0,0.5],[0,0.25]];outlineConnect=0;gradientColor=none;html=1;whiteSpace=wrap;fontSize=12;fontStyle=0;container=1;pointerEvents=0;collapsible=0;recursiveResize=0;shape=mxgraph.aws4.group;grIcon=mxgraph.aws4.group_security_group;grStroke=0;strokeColor=#248814;fillColor=#E9F3E6;verticalAlign=top;align=left;spacingLeft=30;fontColor=#248814;dashed=0;" vertex="1" parent="80N_cRb_uYNAviKP2pO8-4">
          <mxGeometry x="720" y="600" width="280" height="120" as="geometry" />
        </mxCell>
        <mxCell id="4S3UJQU2cWQskrLxN0cE-34" value="NAT gateway" style="sketch=0;outlineConnect=0;fontColor=#232F3E;gradientColor=none;strokeColor=#232F3E;fillColor=#ffffff;dashed=0;verticalLabelPosition=bottom;verticalAlign=top;align=center;html=1;fontSize=12;fontStyle=0;aspect=fixed;shape=mxgraph.aws4.resourceIcon;resIcon=mxgraph.aws4.nat_gateway;" vertex="1" parent="4S3UJQU2cWQskrLxN0cE-32">
          <mxGeometry x="105" y="30" width="60" height="60" as="geometry" />
        </mxCell>
        <mxCell id="4S3UJQU2cWQskrLxN0cE-33" value="NAT gateway" style="sketch=0;outlineConnect=0;fontColor=#232F3E;gradientColor=none;strokeColor=#232F3E;fillColor=#ffffff;dashed=0;verticalLabelPosition=bottom;verticalAlign=top;align=center;html=1;fontSize=12;fontStyle=0;aspect=fixed;shape=mxgraph.aws4.resourceIcon;resIcon=mxgraph.aws4.nat_gateway;" vertex="1" parent="80N_cRb_uYNAviKP2pO8-4">
          <mxGeometry x="230" y="630" width="60" height="60" as="geometry" />
        </mxCell>
        <mxCell id="4S3UJQU2cWQskrLxN0cE-48" style="edgeStyle=orthogonalEdgeStyle;rounded=0;orthogonalLoop=1;jettySize=auto;html=1;" edge="1" parent="80N_cRb_uYNAviKP2pO8-4" source="4S3UJQU2cWQskrLxN0cE-7" target="4S3UJQU2cWQskrLxN0cE-32">
          <mxGeometry relative="1" as="geometry" />
        </mxCell>
        <mxCell id="4S3UJQU2cWQskrLxN0cE-53" value="" style="sketch=0;outlineConnect=0;fontColor=#232F3E;gradientColor=none;fillColor=#4D27AA;strokeColor=none;dashed=0;verticalLabelPosition=bottom;verticalAlign=top;align=center;html=1;fontSize=12;fontStyle=0;aspect=fixed;pointerEvents=1;shape=mxgraph.aws4.route_table;" vertex="1" parent="80N_cRb_uYNAviKP2pO8-4">
          <mxGeometry x="850" y="510" width="78" height="76" as="geometry" />
        </mxCell>
        <mxCell id="4S3UJQU2cWQskrLxN0cE-59" style="edgeStyle=orthogonalEdgeStyle;rounded=0;orthogonalLoop=1;jettySize=auto;html=1;" edge="1" parent="1" source="4S3UJQU2cWQskrLxN0cE-57" target="4S3UJQU2cWQskrLxN0cE-30">
          <mxGeometry relative="1" as="geometry" />
        </mxCell>
        <mxCell id="4S3UJQU2cWQskrLxN0cE-62" style="edgeStyle=orthogonalEdgeStyle;rounded=0;orthogonalLoop=1;jettySize=auto;html=1;" edge="1" parent="1" source="4S3UJQU2cWQskrLxN0cE-57">
          <mxGeometry relative="1" as="geometry">
            <mxPoint x="480" y="1217" as="targetPoint" />
          </mxGeometry>
        </mxCell>
        <mxCell id="4S3UJQU2cWQskrLxN0cE-57" value="" style="outlineConnect=0;dashed=0;verticalLabelPosition=bottom;verticalAlign=top;align=center;html=1;shape=mxgraph.aws3.internet_2;fillColor=#D2D3D3;gradientColor=none;" vertex="1" parent="1">
          <mxGeometry x="620.25" y="1190" width="79.5" height="54" as="geometry" />
        </mxCell>
        <mxCell id="4S3UJQU2cWQskrLxN0cE-58" value="" style="points=[[0.35,0,0],[0.98,0.51,0],[1,0.71,0],[0.67,1,0],[0,0.795,0],[0,0.65,0]];verticalLabelPosition=bottom;sketch=0;html=1;verticalAlign=top;aspect=fixed;align=center;pointerEvents=1;shape=mxgraph.cisco19.user;fillColor=#005073;strokeColor=none;" vertex="1" parent="1">
          <mxGeometry x="370" y="1160" width="94" height="94" as="geometry" />
        </mxCell>
      </root>
    </mxGraphModel>
  </diagram>
</mxfile>
